<svg width="234" height="139" viewBox="0 0 234 139" fill="none" xmlns="http://www.w3.org/2000/svg">
<path d="M3.78965 131.389L49.3376 57.9376C53.1673 51.7618 59.9207 48 67.1876 48H137.213C140.37 48 142.283 51.4846 140.588 54.1475L121.179 84.6475C120.445 85.8013 119.172 86.5 117.804 86.5H78.2496C76.8527 86.5 75.5571 87.2287 74.8315 88.4223L50.8424 127.888C47.2146 133.857 40.7363 137.5 33.752 137.5H7.1871C4.05169 137.5 2.13726 134.053 3.78965 131.389Z" fill="white" stroke="black" stroke-width="2"/>
<path d="M57.0333 32.8693L72.9628 8.65652C76.107 3.87731 81.4442 1 87.1649 1H155.75H216.833C223.991 1 228.285 8.95097 224.359 14.9362L177.535 86.3238C174.393 91.1143 169.049 94 163.32 94H133.417C130.233 94 128.326 90.4625 130.074 87.8027L157.47 46.1296C159.21 43.4836 157.331 39.9616 154.165 39.9324L60.3381 39.0676C57.1712 39.0384 55.2926 35.5152 57.0333 32.8693Z" fill="#D9D9D9"/>
<path d="M57.0333 32.8693L72.9628 8.65652C76.107 3.87731 81.4442 1 87.1649 1H155.75H216.833C223.991 1 228.285 8.95097 224.359 14.9362L177.535 86.3238C174.393 91.1143 169.049 94 163.32 94H133.417C130.233 94 128.326 90.4625 130.074 87.8027L157.47 46.1296C159.21 43.4836 157.331 39.9616 154.165 39.9324L60.3381 39.0676C57.1712 39.0384 55.2926 35.5152 57.0333 32.8693Z" fill="white"/>
<path d="M57.0333 32.8693L72.9628 8.65652C76.107 3.87731 81.4442 1 87.1649 1H155.75H216.833C223.991 1 228.285 8.95097 224.359 14.9362L177.535 86.3238C174.393 91.1143 169.049 94 163.32 94H133.417C130.233 94 128.326 90.4625 130.074 87.8027L157.47 46.1296C159.21 43.4836 157.331 39.9616 154.165 39.9324L60.3381 39.0676C57.1712 39.0384 55.2926 35.5152 57.0333 32.8693Z" stroke="black" stroke-width="2"/>
</svg>
